<?xml version="1.0" encoding="UTF-8"?>
<svg id="BACKGROUND" xmlns="http://www.w3.org/2000/svg" xmlns:xlink="http://www.w3.org/1999/xlink" viewBox="0 0 500 500">
  <defs>
    <style>
      .cls-1 {
        fill: #d1d1d1;
      }

      .cls-2 {
        fill: url(#Degradado_sin_nombre_6);
        opacity: .7;
      }

      .cls-3 {
        fill: url(#Degradado_sin_nombre_43-2);
      }

      .cls-4 {
        fill: url(#Degradado_sin_nombre_43);
      }

      .cls-5 {
        fill: url(#Degradado_sin_nombre_2);
      }

      .cls-6 {
        fill: #b1b1b0;
        opacity: .9;
      }

      .cls-7 {
        fill: #d9d9d9;
      }
    </style>
    <linearGradient id="Degradado_sin_nombre_43" data-name="Degradado sin nombre 43" x1="-11.12" y1="110.58" x2="445.88" y2="354.58" gradientUnits="userSpaceOnUse">
      <stop offset="0" stop-color="#fff"/>
      <stop offset=".49" stop-color="#f0ece5"/>
      <stop offset="1" stop-color="#d1d1d1"/>
    </linearGradient>
    <linearGradient id="Degradado_sin_nombre_43-2" data-name="Degradado sin nombre 43" x1="74.47" y1="378.01" x2="386.32" y2="544.51" xlink:href="#Degradado_sin_nombre_43"/>
    <linearGradient id="Degradado_sin_nombre_2" data-name="Degradado sin nombre 2" x1="310.09" y1="261.43" x2="516.5" y2="371.89" gradientUnits="userSpaceOnUse">
      <stop offset="0" stop-color="#f3f1ee"/>
      <stop offset=".49" stop-color="#f0ece5"/>
      <stop offset="1" stop-color="#d1d1d1"/>
    </linearGradient>
    <linearGradient id="Degradado_sin_nombre_6" data-name="Degradado sin nombre 6" x1="289.17" y1="373.4" x2="-112.83" y2="302.4" gradientUnits="userSpaceOnUse">
      <stop offset="0" stop-color="#d9d9d9"/>
      <stop offset=".04" stop-color="#d5d5d5"/>
      <stop offset=".33" stop-color="#bababa"/>
      <stop offset=".51" stop-color="#b1b1b0"/>
      <stop offset="1" stop-color="#666"/>
    </linearGradient>
  </defs>
  <rect class="cls-4" x="0" width="500" height="500"/>
  <polygon class="cls-3" points="0 500 0 456.25 283.65 402.33 500 443.46 500 500 0 500"/>
  <polygon class="cls-6" points="0 456.25 283.65 402.33 373.75 419.46 216.75 500 0 500 0 456.25"/>
  <polygon class="cls-5" points="500 443.46 283.65 402.33 283.65 271 500 208 500 443.46"/>
  <polygon class="cls-7" points="283.65 402.33 0 456.25 0 188.4 283.65 271 283.65 402.33"/>
  <polygon class="cls-1" points="283.65 402.33 283.65 271 373.75 419.46 283.65 402.33"/>
  <polygon class="cls-2" points="283.65 402.33 0 456.25 0 188.4 283.65 271 283.65 402.33"/>
</svg>