<?xml version="1.0" encoding="UTF-8"?>
<svg id="Layer_2" data-name="Layer 2" xmlns="http://www.w3.org/2000/svg" viewBox="0 0 67.81 47.88">
  <defs>
    <style>
      .cls-1 {
        fill: #f0c6b4;
      }

      .cls-2 {
        fill: #fff;
      }

      .cls-3 {
        fill: #a483a0;
      }

      .cls-4 {
        fill: #ff6b6e;
      }

      .cls-5 {
        opacity: .6;
      }

      .cls-6 {
        fill: #718ed4;
      }

      .cls-7 {
        fill: #ff9496;
      }

      .cls-8 {
        opacity: .4;
      }

      .cls-9 {
        fill: #87aaff;
      }

      .cls-10 {
        fill: #c8dfe8;
      }

      .cls-11 {
        fill: #c7a496;
      }
    </style>
  </defs>
  <g id="Layer_1-2" data-name="Layer 1">
    <g>
      <g>
        <polygon class="cls-6" points="67.81 27.68 0 27.68 0 36.42 19.86 47.88 47.95 47.88 67.81 36.42 67.81 27.68"/>
        <polygon class="cls-9" points="67.81 11.47 47.95 0 19.86 0 0 11.47 0 27.68 19.86 39.15 47.95 39.15 67.81 27.68 67.81 11.47"/>
      </g>
      <g class="cls-8">
        <polygon class="cls-2" points="40.37 26.57 42.27 26.24 43.42 25.52 45.42 26.57 47.33 27 45.28 26.7 43.32 25.96 42.42 26.42 40.37 26.57"/>
        <polygon class="cls-2" points="17.63 5.49 19.54 5.16 20.68 4.44 22.68 5.49 24.59 5.92 22.54 5.62 20.58 4.88 19.68 5.34 17.63 5.49"/>
        <polygon class="cls-2" points="47.58 17.5 49.49 17.17 50.63 16.45 52.63 17.5 54.54 17.93 52.49 17.63 50.54 16.89 49.63 17.35 47.58 17.5"/>
        <polygon class="cls-2" points="41.27 14.39 43.17 14.06 44.32 13.35 46.32 14.39 48.23 14.82 46.18 14.52 44.22 13.79 43.32 14.24 41.27 14.39"/>
        <polygon class="cls-2" points="36.99 7.32 38.9 6.98 40.04 6.27 42.04 7.32 43.95 7.75 41.9 7.45 39.95 6.71 39.04 7.16 36.99 7.32"/>
        <polygon class="cls-2" points="54.18 22.46 56.09 22.12 57.23 21.41 59.23 22.46 61.14 22.88 59.09 22.58 57.14 21.85 56.23 22.3 54.18 22.46"/>
        <polygon class="cls-2" points="44.24 31.06 46.5 30.67 47.86 29.82 50.23 31.06 52.49 31.57 50.06 31.22 47.75 30.34 46.67 30.88 44.24 31.06"/>
        <polygon class="cls-2" points="12.86 31.94 15.12 31.54 16.47 30.7 18.85 31.94 21.11 32.45 18.68 32.09 16.36 31.22 15.29 31.76 12.86 31.94"/>
        <polygon class="cls-2" points="26.08 8.95 28.34 8.56 29.69 7.71 32.07 8.95 34.33 9.46 31.9 9.11 29.58 8.23 28.51 8.77 26.08 8.95"/>
        <polygon class="cls-2" points="55.09 10.76 57.35 10.36 58.71 9.51 61.08 10.76 63.34 11.26 60.91 10.91 58.6 10.04 57.52 10.57 55.09 10.76"/>
        <polygon class="cls-2" points="47.58 6.14 49.84 5.74 51.2 4.89 53.57 6.14 55.83 6.64 53.4 6.29 51.08 5.42 50.01 5.95 47.58 6.14"/>
        <polygon class="cls-2" points="57.54 14.59 59.8 14.19 61.16 13.35 63.53 14.59 65.79 15.1 63.36 14.74 61.05 13.87 59.97 14.4 57.54 14.59"/>
        <polygon class="cls-2" points="52.89 27.74 55.15 27.34 56.51 26.49 58.88 27.74 61.14 28.24 58.71 27.89 56.4 27.01 55.32 27.55 52.89 27.74"/>
        <polygon class="cls-2" points="13.4 18.3 15.66 17.9 17.02 17.05 19.39 18.3 21.65 18.81 19.22 18.45 16.91 17.58 15.83 18.12 13.4 18.3"/>
        <polygon class="cls-2" points="3.39 25.04 5.65 24.65 7.01 23.8 9.38 25.04 11.64 25.55 9.21 25.2 6.89 24.32 5.82 24.86 3.39 25.04"/>
        <polygon class="cls-2" points="5.95 22.26 8.21 21.86 9.57 21.01 11.94 22.26 14.2 22.77 11.77 22.41 9.46 21.54 8.38 22.07 5.95 22.26"/>
        <polygon class="cls-2" points="30.45 28.27 31.77 28.04 32.56 27.54 33.94 28.27 35.26 28.57 33.84 28.36 32.49 27.85 31.87 28.16 30.45 28.27"/>
        <polygon class="cls-2" points="23.15 30.36 24.47 30.13 25.26 29.64 26.65 30.36 27.97 30.66 26.55 30.45 25.2 29.94 24.57 30.25 23.15 30.36"/>
        <polygon class="cls-2" points="19.64 23.86 20.96 23.63 21.75 23.14 23.13 23.86 24.45 24.16 23.03 23.95 21.68 23.44 21.05 23.75 19.64 23.86"/>
        <polygon class="cls-2" points="32.1 33.17 33.42 32.94 34.21 32.45 35.59 33.17 36.91 33.47 35.49 33.26 34.14 32.75 33.51 33.07 32.1 33.17"/>
        <polygon class="cls-2" points="41.16 20.3 42.48 20.07 43.27 19.58 44.65 20.3 45.97 20.6 44.55 20.39 43.2 19.88 42.58 20.19 41.16 20.3"/>
        <polygon class="cls-2" points="46.72 8.37 48.04 8.14 48.83 7.65 50.22 8.37 51.54 8.67 50.12 8.46 48.77 7.95 48.14 8.26 46.72 8.37"/>
        <polygon class="cls-2" points="60.29 19.3 61.61 19.08 62.4 18.58 63.79 19.3 65.1 19.6 63.69 19.4 62.33 18.88 61.71 19.2 60.29 19.3"/>
        <polygon class="cls-2" points="27.28 11.81 28.6 11.58 29.39 11.09 30.77 11.81 32.09 12.11 30.67 11.91 29.32 11.39 28.7 11.71 27.28 11.81"/>
        <polygon class="cls-2" points="20.02 9.75 21.34 9.52 22.13 9.03 23.52 9.75 24.84 10.05 23.42 9.84 22.07 9.33 21.44 9.65 20.02 9.75"/>
        <polygon class="cls-2" points="29.69 4.3 31.01 4.07 31.8 3.58 33.19 4.3 34.5 4.6 33.09 4.4 31.73 3.89 31.11 4.2 29.69 4.3"/>
        <polygon class="cls-2" points="7.51 11.48 8.83 11.25 9.62 10.75 11.01 11.48 12.33 11.78 10.91 11.57 9.56 11.06 8.93 11.37 7.51 11.48"/>
      </g>
      <g>
        <g class="cls-5">
          <polygon class="cls-1" points="49.01 21.98 49.69 22.57 50.85 24.15 54.79 27.16 56.49 28.36 60.02 33.96 61.48 35.77 61.48 37.61 60.96 38.4 60.32 38.09 59.87 37.04 59.34 36.33 59.42 36.93 59.08 37.12 58.51 36.14 58.48 34.94 58.55 34.34 54.87 30.62 53.22 28.63 51.71 27.88 47.11 24.91 45.72 24.57 45.26 22.87 46.87 20.7 49.01 21.98"/>
          <polygon class="cls-11" points="47.25 22.57 48.32 23.06 49.08 22.82 49.25 22.19 47.25 22.57"/>
          <polygon class="cls-1" points="26.47 20.47 23.84 20.81 22.41 19.49 20.57 18.83 16.32 18.41 16.13 17.45 15.68 16.85 15.05 17.05 13.69 18.41 11.96 18.83 10.31 19.99 10.58 20.47 12.23 20.63 12.72 20.44 14.14 20.63 16.89 20.81 19.63 21.58 22.3 23.29 23.54 23.89 25.11 23.89 30.04 24.53 34.63 24.54 34.25 20.16 26.47 20.47"/>
          <polygon class="cls-11" points="25.67 20.58 26.96 21.58 31.44 22.57 30.54 20.7 25.67 20.58"/>
          <polygon class="cls-1" points="32.5 16.85 31.22 16.6 29.39 16.85 21.95 15.72 20.71 13.19 14.93 8.82 14.93 7.66 14.46 6.82 13.81 6.82 12.09 7.21 10.59 7.21 9.04 7.69 9.35 8.2 10.79 8.45 12.71 9.8 16.71 13.27 19.75 17.47 21.02 18.57 21.98 18.83 27.13 21.27 30.04 21.95 32.66 21.58 34.12 20.16 34.12 17.92 32.5 16.85"/>
          <polygon class="cls-7" points="36.94 18.03 35.98 18.83 34.58 17.45 32.5 16.85 33.22 18.37 32.95 19.91 31.61 21.3 30.04 21.95 32.11 23.55 34.63 24.54 36.8 24.77 38.69 24.75 40.52 26.15 41.84 26.32 42.94 25.87 44.29 24.8 45.72 24.57 46.98 23.58 47.58 22.34 47.7 21.47 43.9 20.16 38.29 19.78 36.94 18.03"/>
          <polygon class="cls-4" points="37.53 21.8 37.64 22.68 38.36 24.15 37.37 22.78 37.29 21.58 37.33 21.72 37.53 21.8"/>
          <polygon class="cls-4" points="35.98 18.83 35.37 19.49 35.79 18.64 35.98 18.83"/>
        </g>
        <polygon class="cls-10" points="38.2 17.19 36.43 17.71 35.68 19.25 36.8 21.95 38.2 22.63 40.75 22.19 43.68 22.43 45.72 23.06 48.16 22.43 47.11 20.58 38.2 17.19"/>
        <g>
          <polygon class="cls-11" points="47.11 22.27 45.4 22.43 44.03 20.93 44.48 19.25 45.57 18.83 46.89 19.25 47.4 21.44 47.11 22.27"/>
          <polygon class="cls-7" points="38.41 17.05 36.94 18.03 36.57 19.47 37.07 20.77 37.33 21.72 38.41 22.15 41 21.7 43.98 21.84 45.42 22.57 47.11 22.27 45.42 22.27 44.29 20.93 44.63 19.58 45.49 18.97 43.53 17.45 41.47 16.41 38.41 17.05"/>
          <polygon class="cls-4" points="37.29 21.58 37.7 20.86 38.56 20.37 37.83 20.93 37.51 21.69 37.53 21.8 37.33 21.72 37.29 21.58"/>
          <polygon class="cls-1" points="51.17 18.72 50.88 19.32 50.52 19.6 50.52 20.08 49 22.62 48.4 22.87 47.14 22.54 46.07 20.94 45.98 19.75 45.55 19.41 45.26 18.91 46.31 17.45 49.93 17.69 51.17 18.72"/>
          <polygon class="cls-3" points="51.17 18.72 50.37 19.2 49.2 19.25 47.87 18.99 46.81 18.92 46.12 19.16 45.26 18.91 45.16 17.17 45.73 15.88 47.13 14.86 49.1 14.89 50.29 15.67 51.04 16.75 51.17 17.66 51.17 18.72"/>
          <polygon class="cls-1" points="41.7 18.43 41.59 16.61 41 15.62 39.97 14.99 38.49 12.92 40.24 11.63 39.9 10.41 36.76 10.91 35.54 12.1 35.61 12.74 36.01 13.21 36.84 14.86 38.14 16.64 39.03 18.03 38.93 18.61 39.22 19.08 40.08 19.25 41.03 19.16 41.7 18.43"/>
          <polygon class="cls-1" points="39.75 10.43 40.73 9.72 42.17 9.72 43.27 10.85 42.96 11.07 42.42 10.95 41.79 11.47 41.93 11.71 42.39 12.12 42.31 12.33 41.7 12.37 41.25 12.06 40.59 11.97 40.24 11.63 39.67 11.05 39.75 10.43"/>
          <polygon class="cls-11" points="38.49 12.92 37.81 13.24 36.8 13.37 37.84 13.45 38.49 12.92"/>
        </g>
      </g>
    </g>
  </g>
</svg>