<?xml version="1.0" encoding="UTF-8"?>
<svg id="Layer_2" data-name="Layer 2" xmlns="http://www.w3.org/2000/svg" viewBox="0 0 67.81 54.27">
  <defs>
    <style>
      .cls-1 {
        fill: #f0c6b4;
      }

      .cls-2 {
        fill: #fff;
      }

      .cls-3 {
        fill: #5f9fad;
      }

      .cls-4 {
        opacity: .5;
      }

      .cls-5 {
        fill: #3e6669;
      }

      .cls-6 {
        fill: #7dd2e3;
      }

      .cls-7 {
        fill: #718ed4;
      }

      .cls-8 {
        fill: #6cb5c4;
      }

      .cls-9 {
        fill: #e3bd5e;
      }

      .cls-10 {
        opacity: .4;
      }

      .cls-11 {
        opacity: .3;
      }

      .cls-12 {
        fill: #cc934c;
      }

      .cls-13 {
        fill: #418080;
      }

      .cls-14 {
        fill: #362c29;
      }

      .cls-15 {
        fill: #87aaff;
      }

      .cls-16 {
        fill: #389998;
      }

      .cls-17 {
        fill: #c7a496;
      }

      .cls-18 {
        fill: #baf3ff;
      }

      .cls-19 {
        fill: #d6a950;
      }

      .cls-20 {
        fill: #fbe979;
      }
    </style>
  </defs>
  <g id="Layer_1-2" data-name="Layer 1">
    <g>
      <g>
        <polygon class="cls-7" points="67.81 34.07 0 34.07 0 42.8 19.86 54.27 47.95 54.27 67.81 42.8 67.81 34.07"/>
        <polygon class="cls-15" points="67.81 17.85 47.95 6.39 19.86 6.39 0 17.85 0 34.07 19.86 45.54 47.95 45.54 67.81 34.07 67.81 17.85"/>
      </g>
      <g class="cls-10">
        <polygon class="cls-2" points="40.37 32.96 42.27 32.62 43.42 31.91 45.42 32.96 47.33 33.39 45.28 33.09 43.32 32.35 42.42 32.8 40.37 32.96"/>
        <polygon class="cls-2" points="17.63 11.88 19.53 11.55 20.68 10.83 22.68 11.88 24.59 12.31 22.54 12.01 20.58 11.27 19.68 11.72 17.63 11.88"/>
        <polygon class="cls-2" points="47.58 23.89 49.49 23.56 50.63 22.84 52.63 23.89 54.54 24.32 52.49 24.02 50.54 23.28 49.63 23.73 47.58 23.89"/>
        <polygon class="cls-2" points="44.24 37.45 46.5 37.05 47.86 36.21 50.23 37.45 52.49 37.96 50.06 37.6 47.74 36.73 46.67 37.27 44.24 37.45"/>
        <polygon class="cls-2" points="12.86 38.33 15.12 37.93 16.47 37.08 18.85 38.33 21.11 38.83 18.68 38.48 16.36 37.61 15.29 38.14 12.86 38.33"/>
        <polygon class="cls-2" points="25.56 14.47 27.82 14.07 29.18 13.22 31.55 14.47 33.81 14.97 31.38 14.62 29.06 13.74 27.99 14.28 25.56 14.47"/>
        <polygon class="cls-2" points="55.09 17.14 57.35 16.75 58.71 15.9 61.08 17.14 63.34 17.65 60.91 17.3 58.6 16.42 57.52 16.96 55.09 17.14"/>
        <polygon class="cls-2" points="38.14 10 40.4 9.61 41.75 8.76 44.12 10 46.38 10.51 43.96 10.16 41.64 9.28 40.57 9.82 38.14 10"/>
        <polygon class="cls-2" points="47.58 12.52 49.84 12.13 51.2 11.28 53.57 12.52 55.83 13.03 53.4 12.68 51.08 11.8 50.01 12.34 47.58 12.52"/>
        <polygon class="cls-2" points="57.54 20.97 59.8 20.58 61.16 19.73 63.53 20.97 65.79 21.48 63.36 21.13 61.05 20.25 59.97 20.79 57.54 20.97"/>
        <polygon class="cls-2" points="52.89 34.12 55.15 33.73 56.51 32.88 58.88 34.12 61.14 34.63 58.71 34.28 56.4 33.4 55.32 33.94 52.89 34.12"/>
        <polygon class="cls-2" points="13.4 24.69 15.66 24.29 17.02 23.44 19.39 24.69 21.65 25.19 19.22 24.84 16.91 23.96 15.83 24.5 13.4 24.69"/>
        <polygon class="cls-2" points="3.39 31.43 5.65 31.03 7.01 30.19 9.38 31.43 11.64 31.94 9.21 31.58 6.89 30.71 5.82 31.25 3.39 31.43"/>
        <polygon class="cls-2" points="5.95 28.64 8.21 28.25 9.57 27.4 11.94 28.64 14.2 29.15 11.77 28.8 9.46 27.92 8.38 28.46 5.95 28.64"/>
        <polygon class="cls-2" points="30.45 34.65 31.77 34.42 32.56 33.93 33.94 34.65 35.26 34.95 33.84 34.74 32.49 34.23 31.87 34.55 30.45 34.65"/>
        <polygon class="cls-2" points="23.15 36.75 24.47 36.52 25.26 36.02 26.65 36.75 27.97 37.04 26.55 36.84 25.2 36.33 24.57 36.64 23.15 36.75"/>
        <polygon class="cls-2" points="32.1 39.56 33.42 39.33 34.21 38.83 35.59 39.56 36.91 39.86 35.49 39.65 34.14 39.14 33.51 39.45 32.1 39.56"/>
        <polygon class="cls-2" points="41.16 26.69 42.48 26.46 43.27 25.96 44.65 26.69 45.97 26.98 44.55 26.78 43.2 26.27 42.58 26.58 41.16 26.69"/>
        <polygon class="cls-2" points="46.72 14.76 48.04 14.52 48.83 14.03 50.22 14.76 51.54 15.05 50.12 14.85 48.77 14.34 48.14 14.65 46.72 14.76"/>
        <polygon class="cls-2" points="60.29 25.69 61.61 25.46 62.4 24.97 63.79 25.69 65.11 25.99 63.69 25.78 62.33 25.27 61.71 25.58 60.29 25.69"/>
        <polygon class="cls-2" points="27.28 18.2 28.6 17.97 29.39 17.48 30.77 18.2 32.09 18.5 30.67 18.29 29.32 17.78 28.7 18.09 27.28 18.2"/>
        <polygon class="cls-2" points="20.02 16.14 21.34 15.91 22.13 15.41 23.52 16.14 24.84 16.44 23.42 16.23 22.07 15.72 21.44 16.03 20.02 16.14"/>
        <polygon class="cls-2" points="29.69 10.69 31.01 10.46 31.8 9.97 33.19 10.69 34.5 10.99 33.09 10.78 31.73 10.27 31.11 10.59 29.69 10.69"/>
        <polygon class="cls-2" points="7.51 17.87 8.83 17.63 9.62 17.14 11.01 17.87 12.33 18.16 10.91 17.96 9.56 17.44 8.93 17.76 7.51 17.87"/>
      </g>
      <g>
        <g>
          <polygon class="cls-19" points="51.92 36.63 43.72 38.35 45.61 43.82 49.6 43.82 51.92 36.63"/>
          <polygon class="cls-9" points="45.61 43.82 1.75 18.5 1.75 14.12 36.91 28.05 45.61 39.44 45.61 43.82"/>
          <polygon class="cls-12" points="65.02 30.54 57.31 33.61 49.6 39.44 49.6 43.82 65.02 34.91 65.02 30.54"/>
          <polygon class="cls-20" points="21.17 2.91 17.17 2.91 1.75 11.82 1.75 14.12 45.61 39.44 49.6 39.44 65.02 30.54 65.02 28.23 21.17 2.91"/>
          <g class="cls-4">
            <g>
              <polygon class="cls-12" points="47.29 36.6 47.29 36.9 6.13 13.13 4.96 13.13 4.82 13.21 4.82 12.91 4.96 12.83 6.13 12.83 47.29 36.6"/>
              <polygon class="cls-9" points="47.29 36.9 47.29 37.27 47.16 37.35 45.99 37.35 4.82 13.59 4.82 13.21 4.96 13.13 6.13 13.13 47.29 36.9"/>
            </g>
            <g>
              <polygon class="cls-12" points="50.82 34.56 50.82 34.86 9.66 11.1 8.49 11.1 8.35 11.18 8.35 10.88 8.49 10.8 9.66 10.8 50.82 34.56"/>
              <polygon class="cls-9" points="50.82 34.86 50.82 35.24 50.68 35.32 49.51 35.32 8.35 11.55 8.35 11.18 8.49 11.1 9.66 11.1 50.82 34.86"/>
            </g>
            <g>
              <polygon class="cls-12" points="54.35 32.53 54.35 32.83 13.18 9.06 12.01 9.06 11.87 9.14 11.87 8.84 12.01 8.76 13.18 8.76 54.35 32.53"/>
              <polygon class="cls-9" points="54.35 32.83 54.35 33.2 54.21 33.28 53.04 33.28 11.87 9.52 11.87 9.14 12.01 9.06 13.18 9.06 54.35 32.83"/>
            </g>
            <g>
              <polygon class="cls-12" points="57.87 30.49 57.87 30.79 16.71 7.03 15.54 7.03 15.4 7.11 15.4 6.81 15.54 6.73 16.71 6.73 57.87 30.49"/>
              <polygon class="cls-9" points="57.87 30.79 57.87 31.17 57.73 31.25 56.57 31.25 15.4 7.48 15.4 7.11 15.54 7.03 16.71 7.03 57.87 30.79"/>
            </g>
            <g>
              <polygon class="cls-12" points="61.4 28.46 61.4 28.76 20.23 4.99 19.07 4.99 18.93 5.07 18.93 4.77 19.07 4.69 20.23 4.69 61.4 28.46"/>
              <polygon class="cls-9" points="61.4 28.76 61.4 29.13 61.26 29.21 60.09 29.21 18.93 5.44 18.93 5.07 19.07 4.99 20.23 4.99 61.4 28.76"/>
            </g>
          </g>
        </g>
        <polygon class="cls-11" points="56.52 32.47 26.58 11.91 31.16 9.26 20.93 3.36 2.57 13.96 12.79 19.87 18.39 16.63 24.41 18.55 27.03 21 27.44 21.8 30.58 24.87 40.16 28.02 40.8 27.66 44.22 30.3 52.82 32.58 54.35 34.24 55.82 34.14 56.8 33.52 56.52 32.47"/>
        <g>
          <polygon class="cls-3" points="29.97 8.82 12.12 19.13 11.35 17.18 29.97 7.58 29.97 8.82"/>
          <polygon class="cls-18" points="2.25 10.66 20.1 .35 22.06 .34 19.72 3.11 3.99 11.35 2.25 10.66"/>
          <polygon class="cls-8" points="29.97 7.58 12.12 17.88 7.18 14.88 4.21 10.64 22.06 .34 29.97 7.58"/>
          <polygon class="cls-6" points="12.12 17.88 4.21 10.64 2.25 10.66 2.25 12.29 4.21 14.57 12.12 19.13 12.12 17.88"/>
        </g>
        <g>
          <polygon class="cls-11" points="14.67 7.26 15.62 7.35 16.24 6.97 16.93 7.58 17.8 10.35 19.1 8.59 17.12 6.44 17.38 6.28 15.4 4.91 8.13 9.45 8.32 12.3 15.62 15.1 16.93 15.1 17.15 16.22 18.81 15.26 18.93 13.99 17.88 11.78 12.87 10.35 14.67 7.26"/>
          <polygon class="cls-1" points="13.4 5.1 13.74 4.47 14.34 4.03 16.65 6.28 15.3 6.78 14.37 6.77 13.4 6.16 13.4 5.1"/>
          <polygon class="cls-13" points="39.73 26.82 41.57 25.99 42.34 23.96 41.91 22.27 39.64 21.89 37.89 25.65 39.73 26.82"/>
          <polygon class="cls-1" points="41.68 22.34 43.32 23.33 44.95 24.99 47.21 25.92 50.62 28.23 53.35 29.47 53.75 29.47 55.04 27.42 55.69 27.7 55.92 29.47 55.58 30.49 56.14 32.46 56.14 33.14 55.38 33.67 54.45 33.31 53.52 32.07 49.07 30.29 45.04 29.36 42.25 26.82 39.3 25.76 38.14 24.54 40.36 21.64 41.68 22.34"/>
          <polygon class="cls-5" points="42.4 22.37 44 21.43 44.63 19.51 43.9 18.07 42.39 18.07 41.43 21.33 42.4 22.37"/>
          <polygon class="cls-1" points="43.63 18.27 44.35 18.61 45.91 19 52.52 23.22 53.24 23.22 54.07 20.82 54.68 19.73 55.66 19.7 56.71 21.18 56.32 23.79 55.94 24.73 55.87 26.7 55.04 27.42 53.88 27.23 51.66 25.73 49.43 24.82 46.76 24.34 44.22 22.23 42.23 21.89 40.8 20.69 42.34 18.02 43.63 18.27"/>
          <polygon class="cls-13" points="32.98 13.32 38.68 15.06 43.9 18.07 42.75 18.93 42.13 20.8 42.4 22.37 33.63 19.13 31.43 15.78 32.98 13.32"/>
          <polygon class="cls-16" points="27.17 19.78 27.56 20.8 30.86 23.58 39.73 26.82 39.45 25 40.14 23.06 41.91 22.27 35.06 17.95 34.81 15.51 32.98 13.32 29.83 13.14 25.9 16.33 27.17 19.78"/>
          <polygon class="cls-13" points="26.4 18.93 27.17 19.78 27.08 18.05 27.67 16.26 30.47 13.91 32.98 13.32 32.2 12.84 30.86 12.51 26.78 14.17 25.71 17.75 26.4 18.93"/>
          <polygon class="cls-1" points="23.37 7.03 25.12 6.28 26.86 6.4 28.07 7.43 32.63 10.06 32.39 11.07 28.52 10.87 25.29 8.84 23.37 7.03"/>
          <polygon class="cls-17" points="25.9 6.82 28.22 7.93 29.83 10.23 28.74 10.35 25.9 8.23 25.9 6.82"/>
          <polygon class="cls-17" points="27.03 9.71 28.85 9.45 30.74 9.88 32.63 10.06 32.3 10.39 28.05 10.56 27.03 9.71"/>
          <polygon class="cls-1" points="30.75 10.06 32.86 10.06 34.15 10.95 34.27 12.03 33.21 12.91 32.03 12.67 30.13 12.03 30.75 10.06"/>
          <polygon class="cls-17" points="31.01 11.48 32.28 12.72 32.02 12.66 30.58 11.49 31.01 11.48"/>
          <polygon class="cls-1" points="16.33 6.37 17.15 7.17 17.79 8.82 17.23 10.95 17.38 14.17 19.48 15.77 22.34 16.97 24.44 17.57 26.4 18.93 26.24 17.69 26.9 15.89 29.6 13.5 32.2 12.84 29.17 9.98 28.05 8.14 25.9 6.82 24.03 6.96 21.96 7.17 20.61 5.74 20.62 5.29 18.17 4.91 15.62 5.96 16.33 6.37"/>
          <polygon class="cls-17" points="20.62 5.29 18.86 5.96 16.93 5.9 17.4 6.53 19.14 6.53 20.62 5.29"/>
          <polygon class="cls-1" points="16.55 .15 17.71 .24 19.17 1.17 19.29 1.7 19.71 1.97 21.09 4.54 21.09 5 19.04 6.28 17.38 6.28 16.93 5.9 15.98 5.87 15.62 5.96 15.02 5.58 14.27 4.39 13.97 3.18 13.97 2.09 14.83 .73 15.82 .21 16.55 .15"/>
          <polygon class="cls-14" points="16.33 6.37 15.98 5.87 15.31 5.59 14.96 5.05 15.01 4.44 15.44 4.37 15.8 4.73 16.16 4.3 15.58 3.57 15.44 3.04 14.89 2.55 14.27 2.7 14.33 1.99 15.12 .92 16.55 .15 15.73 0 14.41 .79 13.74 2.24 13.74 3.64 13.93 4.53 14.55 5.4 15.15 5.95 15.94 6.37 16.33 6.37"/>
          <polygon class="cls-1" points="13.4 5.1 14.18 5.64 14.37 6.77 12.17 9.53 16.17 10.21 18.2 10.21 19.8 12.69 19.2 14.17 17.38 14.17 15.71 14.17 8.76 11.92 8.32 10.44 8.44 8.93 10.05 7.39 13.4 5.1"/>
          <polygon class="cls-17" points="12.17 9.53 9.71 9.64 12.42 9.22 12.17 9.53"/>
          <polygon class="cls-17" points="30.86 11.57 30.74 11.85 30.14 11.88 28.72 12.51 26.83 12.03 26.18 10.95 27.03 9.71 28.85 9.45 28.95 9.62 30.86 11.57"/>
          <polygon class="cls-1" points="26.4 11.02 27.16 9.89 29.02 9.61 30.75 10.06 31.22 10.67 31.01 11.48 30.68 11.68 30.06 11.68 28.68 12.3 26.91 11.83 26.4 11.02"/>
          <polygon class="cls-17" points="15.96 12.67 17.88 11.78 20.86 12.48 18.04 12.14 15.96 12.67"/>
          <polygon class="cls-17" points="55.58 30.49 54.83 31.87 55.14 31.87 55.58 30.49"/>
        </g>
      </g>
    </g>
  </g>
</svg>